<svg xmlns="http://www.w3.org/2000/svg" viewBox="0 0 1614.74 1643.62"><defs><style>.cls-1{isolation:isolate;}.cls-2{fill:#f4a640;}.cls-3{fill:#adcfd8;}.cls-13,.cls-4{fill:#55769f;}.cls-5,.cls-9{fill:#daeef7;}.cls-6{fill:#feb546;}.cls-7{fill:#ff5b7e;}.cls-8{fill:#e03268;}.cls-22,.cls-23,.cls-9{mix-blend-mode:multiply;}.cls-10{fill:#07085b;}.cls-11{fill:#02ccc0;}.cls-12{fill:#06bfad;}.cls-13{opacity:0.5;}.cls-14{fill:#c4dfe8;}.cls-15{fill:#ffc0bb;}.cls-16{fill:#fc8d84;opacity:0.6;}.cls-17{fill:#050645;}.cls-18{fill:#fff;}.cls-19{fill:#f99893;}.cls-20{fill:#333;}.cls-21{fill:#6f747a;}.cls-22{fill:#cdd6e0;}.cls-23{fill:#d9d9d9;}</style></defs><g class="cls-1"><g id="Layer_1" data-name="Layer 1"><path class="cls-2" d="M-189.16,1566.56l206.25,82.83L272.4,1013.66l-174.34-70a34.41,34.41,0,0,0-44.73,19.1Z" transform="translate(1016.07 -238.82)"/><rect class="cls-3" x="-167.29" y="1018.32" width="401.07" height="563.91" transform="translate(855.07 2347.58) rotate(-169.95)"/><rect class="cls-4" x="-16.97" y="1077.77" width="179.1" height="4.02" transform="translate(971.63 1916.83) rotate(-169.95)"/><rect class="cls-4" x="-52.82" y="1067.73" width="254.35" height="4.02" transform="translate(976.91 1897.22) rotate(-169.95)"/><rect class="cls-4" x="-89.09" y="1119.34" width="308.59" height="4.02" transform="translate(949.74 1998.05) rotate(-169.95)"/><rect class="cls-4" x="-92.46" y="1138.39" width="308.59" height="4.02" transform="translate(939.72 2035.26) rotate(-169.95)"/><rect class="cls-4" x="-99.21" y="1176.47" width="308.59" height="4.02" transform="translate(919.67 2109.66) rotate(-169.95)"/><rect class="cls-4" x="-102.59" y="1195.51" width="308.59" height="4.02" transform="matrix(-0.98, -0.17, 0.17, -0.98, 909.65, 2146.87)"/><rect class="cls-4" x="-105.97" y="1214.55" width="308.59" height="4.02" transform="translate(899.63 2184.07) rotate(-169.95)"/><rect class="cls-4" x="-120.81" y="1298.31" width="308.59" height="4.02" transform="translate(855.54 2347.7) rotate(-169.95)"/><rect class="cls-4" x="-124.31" y="1318.06" width="308.59" height="4.02" transform="translate(845.14 2386.28) rotate(-169.95)"/><rect class="cls-4" x="-127.82" y="1337.8" width="308.59" height="4.02" transform="translate(834.75 2424.86) rotate(-169.95)"/><rect class="cls-4" x="-131.32" y="1357.55" width="308.59" height="4.02" transform="translate(824.36 2463.44) rotate(-169.95)"/><rect class="cls-4" x="-134.82" y="1377.29" width="308.59" height="4.02" transform="translate(813.96 2502.01) rotate(-169.95)"/><rect class="cls-4" x="-138.32" y="1397.04" width="308.59" height="4.02" transform="translate(803.56 2540.59) rotate(-169.95)"/><rect class="cls-4" x="-141.82" y="1416.79" width="308.59" height="4.02" transform="translate(793.17 2579.17) rotate(-169.95)"/><rect class="cls-5" x="-136.45" y="1015.53" width="401.07" height="563.91" transform="matrix(-0.97, -0.25, 0.25, -0.97, 811.92, 2329.75)"/><rect class="cls-4" x="31.78" y="1078.94" width="179.1" height="4.02" transform="translate(979.62 1918.36) rotate(-165.26)"/><rect class="cls-4" x="-3.25" y="1069.08" width="254.36" height="4.02" transform="translate(987.23 1899.63) rotate(-165.26)"/><rect class="cls-4" x="-43.71" y="1119.77" width="308.59" height="4.02" transform="translate(948.09 1995.94) rotate(-165.26)"/><rect class="cls-4" x="-48.63" y="1138.47" width="308.59" height="4.02" transform="translate(933.65 2031.48) rotate(-165.26)"/><rect class="cls-4" x="-58.48" y="1175.88" width="308.59" height="4.02" transform="translate(904.77 2102.55) rotate(-165.26)"/><rect class="cls-4" x="-63.4" y="1194.58" width="308.59" height="4.02" transform="translate(890.32 2138.09) rotate(-165.26)"/><rect class="cls-4" x="-68.32" y="1213.28" width="308.59" height="4.02" transform="matrix(-0.97, -0.25, 0.25, -0.97, 875.88, 2173.63)"/><rect class="cls-4" x="-89.97" y="1295.54" width="308.59" height="4.02" transform="translate(812.36 2329.93) rotate(-165.26)"/><rect class="cls-4" x="-95.08" y="1314.94" width="308.59" height="4.02" transform="translate(797.38 2366.78) rotate(-165.26)"/><rect class="cls-4" x="-100.18" y="1334.33" width="308.59" height="4.02" transform="translate(782.41 2403.63) rotate(-165.26)"/><rect class="cls-4" x="-105.28" y="1353.72" width="308.59" height="4.02" transform="translate(767.44 2440.48) rotate(-165.26)"/><rect class="cls-4" x="-110.39" y="1373.12" width="308.59" height="4.02" transform="matrix(-0.97, -0.25, 0.25, -0.97, 752.46, 2477.33)"/><rect class="cls-4" x="-115.49" y="1392.51" width="308.59" height="4.02" transform="translate(737.48 2514.18) rotate(-165.26)"/><rect class="cls-4" x="-120.6" y="1411.9" width="308.59" height="4.02" transform="translate(722.51 2551.03) rotate(-165.26)"/><path class="cls-6" d="M-110.9,1598l415.23,166.76,242.18-603L197.59,946.47a37.15,37.15,0,0,0-54,17.77Z" transform="translate(1016.07 -238.82)"/><path class="cls-7" d="M388.86,1534.7l75.24-22c13.24-54.75,21.2-101.38,21.2-101.38-90.78,3.66-160.64,31.44-214.37,70.94l-11.12,89.42-24-60C109,1632.66,94.12,1819.41,94.12,1819.41s255.32-99.9,304-141.07c18.78-15.89,36.06-59.33,50.2-106.67C422.9,1558,388.86,1534.7,388.86,1534.7Z" transform="translate(1016.07 -238.82)"/><path class="cls-8" d="M485.3,1411.28S186.5,1645.66,94.12,1819.41c0,0,255.32-99.9,304-141.07,18.78-15.89,36.06-59.33,50.2-106.67-25.41-13.68-59.45-37-59.45-37l75.24-22C477.34,1457.91,485.3,1411.28,485.3,1411.28Z" transform="translate(1016.07 -238.82)"/><path class="cls-7" d="M536.6,1641.32c-53-15.26-103-17.54-149-11.31-8.58,19.73-19.35,43.12-19.35,43.12l-12.06-37.46C183.82,1674.47,73.9,1827.15,73.9,1827.15c115.63,35.2,204.46,29.34,271.86,4.95.45-14.39.83-35.76.83-35.76l20.5,27.14a308.23,308.23,0,0,0,79.7-52c-10.77-14-22.5-30.25-22.5-30.25l42.41,10.82C517.92,1697.68,536.6,1641.32,536.6,1641.32Z" transform="translate(1016.07 -238.82)"/><path class="cls-8" d="M345.76,1832.1c.45-14.39.83-35.76.83-35.76l20.5,27.14a308.23,308.23,0,0,0,79.7-52c-10.77-14-22.5-30.25-22.5-30.25l42.41,10.82c51.22-54.42,69.9-110.78,69.9-110.78-204.69,31.32-462.7,185.83-462.7,185.83C189.53,1862.35,278.36,1856.49,345.76,1832.1Z" transform="translate(1016.07 -238.82)"/><path class="cls-8" d="M-767.91,1184H-796.3a29.66,29.66,0,0,1,16.78-5.08H-68.17c37.22,0,67.39,26.74,67.39,59.73v37.95c0,33-30.17,59.73-67.39,59.73l-703.4-.21Z" transform="translate(1016.07 -238.82)"/><path class="cls-6" d="M-60.45,1276.58v-37.95c0-33-30.17-59.73-67.39-59.73h15.28c37.21,0,67.38,26.74,67.38,59.73v37.95c0,33-30.17,59.73-67.38,59.73h-15.08C-90.51,1336.21-60.45,1309.51-60.45,1276.58Z" transform="translate(1016.07 -238.82)"/><path class="cls-6" d="M-227,1276.58v-37.95c0-33-30.17-59.73-67.39-59.73h15.27c37.22,0,67.39,26.74,67.39,59.73v37.95c0,33-30.17,59.73-67.39,59.73h-15.07C-257.12,1336.21-227,1309.51-227,1276.58Z" transform="translate(1016.07 -238.82)"/><path class="cls-7" d="M-364.06,1179c35.59,0,64.45,25.58,64.45,57.13V1279c0,31.55-28.86,57.13-64.45,57.13H-806.89v-9.59h1.83l112.58-9.45,22.75-79.13s-43.92-43.73-46.78-44.86-88.55-4.54-88.55-4.54l-1.83,0V1179Z" transform="translate(1016.07 -238.82)"/><path class="cls-5" d="M-778.17,1257.32c0-46.26-27-68.69-27-68.69h432c32.69,0,59.2,23.49,59.2,52.47v33c0,29-26.51,52.47-59.2,52.47h-432S-778.17,1315.58-778.17,1257.32Z" transform="translate(1016.07 -238.82)"/><path class="cls-9" d="M-313.93,1241.1v33a46.88,46.88,0,0,1-1.73,12.58c-14.57-31.6-42.49-62-95.65-71.82-124.12-22.85-393.83-26.24-393.83-26.24h432C-340.44,1188.63-313.93,1212.12-313.93,1241.1Z" transform="translate(1016.07 -238.82)"/><path class="cls-10" d="M-756.19,1498.61h-32.14a31.35,31.35,0,0,1,19-6.36H35.77c42.13,0,76.27,33.48,76.27,74.77v47.5c0,41.29-34.14,74.77-76.27,74.77l-796.11-.27Z" transform="translate(1016.07 -238.82)"/><path class="cls-4" d="M-299.11,1492.43c40.28,0,72.93,32,72.93,71.51v53.67c0,39.49-32.65,71.5-72.93,71.5H-800.32v-12h2.07l127.42-11.83,25.75-99s-49.7-54.73-52.94-56.14-100.23-5.7-100.23-5.7l-2.07,0v-11.94Z" transform="translate(1016.07 -238.82)"/><path class="cls-5" d="M-767.81,1590.42c0-57.91-30.53-86-30.53-86h489c37,0,67,29.4,67,65.67v41.32c0,36.27-30,65.68-67,65.68h-489S-767.81,1663.33-767.81,1590.42Z" transform="translate(1016.07 -238.82)"/><path class="cls-9" d="M-242.38,1570.11v41.32a64.47,64.47,0,0,1-2,15.75c-16.49-39.56-48.1-77.65-108.26-89.9-140.48-28.61-445.74-32.84-445.74-32.84h489C-272.38,1504.44-242.38,1533.84-242.38,1570.11Z" transform="translate(1016.07 -238.82)"/><path class="cls-11" d="M138.58,1341h32.15a37.08,37.08,0,0,0-19-5H-653.7c-42.14,0-76.3,26.56-76.3,59.33v37.68c0,32.77,34.16,59.33,76.3,59.33l796.42-.21Z" transform="translate(1016.07 -238.82)"/><path class="cls-12" d="M-318.68,1336.05c-40.3,0-73,25.4-73,56.74v42.59c0,31.33,32.67,56.73,73,56.73h501.4v-9.52h-2.07L53.18,1473.2l-25.76-78.59s49.72-43.43,53-44.55,100.27-4.52,100.27-4.52h2.07v-9.48Z" transform="translate(1016.07 -238.82)"/><path class="cls-5" d="M150.2,1413.8c0-46,30.54-68.22,30.54-68.22H-308.41c-37,0-67,23.33-67,52.11v32.78c0,28.78,30,52.12,67,52.12H180.74S150.2,1471.66,150.2,1413.8Z" transform="translate(1016.07 -238.82)"/><path class="cls-9" d="M-375.43,1397.69v32.78a41.2,41.2,0,0,0,1.95,12.5c16.5-31.39,48.12-61.62,108.31-71.34,140.53-22.69,445.91-26.05,445.91-26.05H-308.41C-345.43,1345.58-375.43,1368.91-375.43,1397.69Z" transform="translate(1016.07 -238.82)"/><path class="cls-13" d="M-582.45,1432.92v-37.68c0-32.77,34.16-59.33,76.3-59.33h-76.48c-42.14,0-76.3,26.56-76.3,59.33v37.68c0,32.77,34.16,59.33,76.3,59.33l75.47,0C-548.83,1491.81-582.45,1465.43-582.45,1432.92Z" transform="translate(1016.07 -238.82)"/><path class="cls-6" d="M191.63,1695.33h40.31a50.82,50.82,0,0,0-23.82-5.64H-801.62c-52.83,0-95.66,29.68-95.66,66.29v42.1c0,36.61,42.83,66.29,95.66,66.29l998.45-.23Z" transform="translate(1016.07 -238.82)"/><path class="cls-2" d="M-381.62,1689.85c-50.52,0-91.48,28.38-91.48,63.39v47.58c0,35,41,63.4,91.48,63.4H247v-10.65h-2.6l-159.8-10.49-32.3-87.8s62.34-48.53,66.41-49.78,125.69-5,125.69-5l2.6,0v-10.58Z" transform="translate(1016.07 -238.82)"/><path class="cls-5" d="M206.2,1776.72c0-51.34,38.28-76.23,38.28-76.23H-368.75c-46.4,0-84,26.07-84,58.23v36.63c0,32.15,37.62,58.22,84,58.22H244.48S206.2,1841.36,206.2,1776.72Z" transform="translate(1016.07 -238.82)"/><path class="cls-9" d="M-452.77,1758.72v36.63a41.56,41.56,0,0,0,2.45,14c20.68-35.07,60.32-68.84,135.78-79.71,176.18-25.35,559-29.11,559-29.11H-368.75C-415.15,1700.49-452.77,1726.56-452.77,1758.72Z" transform="translate(1016.07 -238.82)"/><path class="cls-14" d="M-1008.23,1863.17H456.13A7.83,7.83,0,0,1,464,1871v3.61a7.83,7.83,0,0,1-7.83,7.83H-1008.23a7.84,7.84,0,0,1-7.84-7.84V1871A7.83,7.83,0,0,1-1008.23,1863.17Z" transform="translate(463.97 3506.79) rotate(180)"/><polygon class="cls-2" points="1489.01 989.47 1206.31 827.77 1168.1 903.46 1457.37 1056.5 1489.01 989.47"/><path class="cls-11" d="M240.62,643.86s2.23,22,19.58,23.51c-17.35,1.52-19.58,23.51-19.58,23.51s-2.23-22-19.58-23.51C238.39,665.85,240.62,643.86,240.62,643.86Z" transform="translate(1016.07 -238.82)"/><path class="cls-7" d="M546.51,1284.8s3.35,33,29.37,35.27c-26,2.28-29.37,35.26-29.37,35.26s-3.34-33-29.37-35.26C543.17,1317.79,546.51,1284.8,546.51,1284.8Z" transform="translate(1016.07 -238.82)"/><path class="cls-6" d="M464.91,464.07s3,29.28,26.08,31.31c-23.11,2-26.08,31.31-26.08,31.31s-3-29.29-26.08-31.31C461.94,493.35,464.91,464.07,464.91,464.07Z" transform="translate(1016.07 -238.82)"/><path class="cls-6" d="M-910.71,1414.66s2,19.71,17.55,21.07c-15.56,1.37-17.55,21.08-17.55,21.08s-2-19.71-17.55-21.08C-912.71,1434.37-910.71,1414.66-910.71,1414.66Z" transform="translate(1016.07 -238.82)"/><path class="cls-7" d="M361.06,860.74s2,19.66,17.51,21c-15.52,1.36-17.51,21-17.51,21s-2-19.67-17.52-21C359.06,880.4,361.06,860.74,361.06,860.74Z" transform="translate(1016.07 -238.82)"/><path class="cls-7" d="M90.89,344.57s2,19.66,17.52,21c-15.52,1.36-17.52,21-17.52,21s-2-19.67-17.51-21C88.9,364.23,90.89,344.57,90.89,344.57Z" transform="translate(1016.07 -238.82)"/><path class="cls-7" d="M-722.59,594.89s2.61,25.73,22.91,27.51c-20.3,1.78-22.91,27.51-22.91,27.51s-2.61-25.73-22.92-27.51C-725.2,620.62-722.59,594.89-722.59,594.89Z" transform="translate(1016.07 -238.82)"/><path class="cls-7" d="M-897.28,1040.64s3.82,37.7,33.58,40.31c-29.76,2.61-33.58,40.31-33.58,40.31s-3.82-37.7-33.57-40.31C-901.1,1078.34-897.28,1040.64-897.28,1040.64Z" transform="translate(1016.07 -238.82)"/><path class="cls-7" d="M12.48,698.1s3,29.28,26.08,31.31c-23.11,2-26.08,31.31-26.08,31.31s-3-29.28-26.08-31.31C9.51,727.38,12.48,698.1,12.48,698.1Z" transform="translate(1016.07 -238.82)"/><path class="cls-11" d="M572.59,1014.25s3,29.29,26.08,31.31c-23.11,2-26.08,31.31-26.08,31.31s-3-29.28-26.08-31.31C569.62,1043.54,572.59,1014.25,572.59,1014.25Z" transform="translate(1016.07 -238.82)"/><path class="cls-11" d="M-878.7,413.31s2.12,20.86,18.58,22.3c-16.46,1.45-18.58,22.31-18.58,22.31s-2.12-20.86-18.58-22.31C-880.82,434.17-878.7,413.31-878.7,413.31Z" transform="translate(1016.07 -238.82)"/><path class="cls-11" d="M-658.93,929s3.39,33.41,29.75,35.72c-26.36,2.31-29.75,35.72-29.75,35.72s-3.39-33.41-29.75-35.72C-662.32,962.43-658.93,929-658.93,929Z" transform="translate(1016.07 -238.82)"/><path class="cls-6" d="M-951.44,711.47s2.32,26.51,20.32,28.34c-18,1.83-20.32,28.34-20.32,28.34s-2.31-26.51-20.32-28.34C-953.75,738-951.44,711.47-951.44,711.47Z" transform="translate(1016.07 -238.82)"/><path class="cls-6" d="M-520.36,287.72S-518,314.31-500,316.15c-18.06,1.83-20.38,28.42-20.38,28.42s-2.32-26.59-20.38-28.42C-522.68,314.31-520.36,287.72-520.36,287.72Z" transform="translate(1016.07 -238.82)"/><path class="cls-9" d="M-234.77,821.23l45.62,3.66-14.72,36.9-23-1.85-9.59,30.76c-2.33-1.06-4.06-1.87-4.4-2.11-.7-.46-3.24-15.72-5.48-30.14Z" transform="translate(1016.07 -238.82)"/><path class="cls-8" d="M-208.74,1160.55v16.08a2.41,2.41,0,0,0,2.4,2.41h37.54a2.72,2.72,0,0,0,1.46-5l-21.06-13.47S-196.66,1166.61-208.74,1160.55Z" transform="translate(1016.07 -238.82)"/><path class="cls-15" d="M-282.43,479a.74.74,0,0,1-1-.84c.94-4.46,3.81-18.53,2.73-19-1.29-.59-4.16,11.92-5.46,12.07s1.8-12,.32-12.39-3.94,10.75-4.62,10.79.53-10.9-.19-11.66-3.45,10.76-4.26,11-1.58-8.29-2.32-8.31-1.24-.16-5,19.64c0,0-.23,7.26-1.51,9l2.85,5.83,8.86.3S-272.83,478-273,476.91-274,475.66-282.43,479Z" transform="translate(1016.07 -238.82)"/><path class="cls-15" d="M-191.27,483.35a.74.74,0,0,0,1.27-.28c1.2-4.41,5.06-18.24,6.24-18.19,1.42.06-1.73,12.5-.63,13.23s3.85-11.48,5.35-11.17-1.39,11.36-.8,11.71,4.49-9.95,5.48-10.29-1.83,11.14-1.24,11.77,5.18-6.66,5.85-6.34,1.17.43-4.46,19.79c0,0-3.11,6.56-2.74,8.66l-5.2,3.89-8-3.78s-9.19-24.26-8.57-25.13S-197.28,476.56-191.27,483.35Z" transform="translate(1016.07 -238.82)"/><polygon class="cls-15" points="754.41 403.09 754.55 436.94 721.67 431.87 727.15 393.8 754.41 403.09"/><path class="cls-16" d="M-291.44,650.14l2.53-17.52,27.28,12.49,0,6.68C-268.19,653.4-280.49,654.84-291.44,650.14Z" transform="translate(1016.07 -238.82)"/><path class="cls-8" d="M-321.07,1158.77v17.63a2.64,2.64,0,0,1-2.64,2.64H-365a3,3,0,0,1-1.6-5.51l23.17-14.76S-334.36,1165.41-321.07,1158.77Z" transform="translate(1016.07 -238.82)"/><path class="cls-10" d="M-358.79,859.13c.09-3.78-9.73,7.35-9.55,4.33,3.86-62.62,126.22-10.11,126.22-10.11l29.86,21.92,33.73,290.24s-18.31,5.3-30.35,1l-74.67-248.72-9.19-3.53S-333.58,885.73-358.79,859.13Z" transform="translate(1016.07 -238.82)"/><path class="cls-12" d="M-368.48,866c0,.73-.07,1.48-.1,2.25C-368.55,867.5-368.51,866.75-368.48,866Z" transform="translate(1016.07 -238.82)"/><path class="cls-12" d="M-368.58,868.31c0,.78-.06,1.59-.08,2.41C-368.64,869.9-368.61,869.09-368.58,868.31Z" transform="translate(1016.07 -238.82)"/><path class="cls-12" d="M-368.67,871c0,.86-.05,1.73-.07,2.62C-368.72,872.77-368.69,871.9-368.67,871Z" transform="translate(1016.07 -238.82)"/><path class="cls-12" d="M-368.34,863.46c0,.68-.08,1.39-.11,2.1C-368.42,864.85-368.38,864.14-368.34,863.46Z" transform="translate(1016.07 -238.82)"/><path class="cls-10" d="M-368.32,849.24c25.21,26.6,75.58,65,75.58,65l9.19,3.53-9.19-3.53-28.39,251.28s-20.23,3.86-31.79-2.41C-352.92,1163.1-370,923.91-368.32,849.24Z" transform="translate(1016.07 -238.82)"/><path class="cls-12" d="M-178.53,1165.51a78.47,78.47,0,0,1-16.71,2.63,78.47,78.47,0,0,0,16.71-2.63Z" transform="translate(1016.07 -238.82)"/><path class="cls-12" d="M-205.35,1167.45c.81.17,1.64.3,2.48.41C-203.71,1167.75-204.54,1167.62-205.35,1167.45Z" transform="translate(1016.07 -238.82)"/><path class="cls-12" d="M-195.24,1168.14a50.22,50.22,0,0,1-6.37-.14A50.22,50.22,0,0,0-195.24,1168.14Z" transform="translate(1016.07 -238.82)"/><path class="cls-17" d="M-212.26,875.27l4.82,41.42c-12.74,4.93-43.78,10.2-67.17-41-7.37-16.14-9.27-27.75-7.91-36.09a332.18,332.18,0,0,1,40.4,13.71Z" transform="translate(1016.07 -238.82)"/><path class="cls-5" d="M-324.53,706.19c1.42,0,22.61-48,22.61-48,18.13,12.72,42.74,3.89,42.74,3.89s99,181.19,32.61,209.45-129-6.12-129-6.12-14.13-36.74-14.13-38.15S-325.94,706.19-324.53,706.19Z" transform="translate(1016.07 -238.82)"/><path class="cls-4" d="M-195.49,502.74s4.29,86-3.77,101.72C-226,656.74-259.18,662-259.18,662s-11.42,182.84-2,226.64c0,0,31.31,9.65,77.47-12,0,0-35.33-141.75-33.44-159.65,0,0,56.51-50.39,58.4-109.73s-13.66-112.08-13.66-112.08Z" transform="translate(1016.07 -238.82)"/><path class="cls-4" d="M-347.84,882.08s3.53-68.05,19.08-132.57,26.84-91.36,26.84-91.36c-20.84-23-17.38-43.71-15.54-70.64,2.12-31.08,32.49-93.25,32.49-93.25l-20.48-13.42c-98.19,118-43.8,211.93-43.8,211.93s-36.73,130-41.68,169.54A298.63,298.63,0,0,0-347.84,882.08Z" transform="translate(1016.07 -238.82)"/><path class="cls-18" d="M-218.1,716.82a21.23,21.23,0,0,1-4-3.75c-4.17-5-6.33-10.68-7.82-17,.91,2.7,3.32,10.55,8.41,16.51a20.27,20.27,0,0,0,4.59,4.2l-.28.25,0,.37c-1.31.27-3.6.35-7.47-1.75a34,34,0,0,1-6.28-4.51,46,46,0,0,0,6.51,4.06A14.14,14.14,0,0,0-218.1,716.82Z" transform="translate(1016.07 -238.82)"/><path class="cls-18" d="M-348.5,692.33A21.9,21.9,0,0,0-344,688.2c4.16-4.88,6.45-10.67,8.4-16.51-1.48,6.29-3.63,12-7.81,17a21.94,21.94,0,0,1-3.95,3.75,8.91,8.91,0,0,0,2.76-.32,18.25,18.25,0,0,0,3.55-1.31,44.77,44.77,0,0,0,6.51-4.06,34.17,34.17,0,0,1-6.28,4.51,18.39,18.39,0,0,1-3.6,1.51,7.7,7.7,0,0,1-4,.21l-.75-.21Z" transform="translate(1016.07 -238.82)"/><polygon class="cls-10" points="707.24 334.01 705.25 357.24 708.92 359.55 715.71 331.26 707.24 334.01"/><path class="cls-19" d="M-303.89,593.66c1,5.26-1.58,10.18-5.79,11s-8.45-2.8-9.46-8.06,1.59-10.19,5.8-11S-304.9,588.4-303.89,593.66Z" transform="translate(1016.07 -238.82)"/><path class="cls-15" d="M-309.91,615.14a76.5,76.5,0,0,1-.33-19.52c.13-1.26.18-2.54.21-3.81a41.59,41.59,0,0,1,3.45-15.59,41.57,41.57,0,0,1,43-24.57,41.45,41.45,0,0,1,35.65,49.28,9,9,0,0,1,8,1c4.39,3.12,4.79,10.1.89,15.59s-10.62,7.41-15,4.29a7.92,7.92,0,0,1-1.59-1.52c-6,19.5-25.39,31.59-44.88,27.36C-295.3,644.4-307.51,632.13-309.91,615.14Z" transform="translate(1016.07 -238.82)"/><path class="cls-20" d="M-265,596.56a3.62,3.62,0,0,0,3.41,5,3.59,3.59,0,0,0,3.29-2.25,3.63,3.63,0,0,0-3.41-5A3.61,3.61,0,0,0-265,596.56Z" transform="translate(1016.07 -238.82)"/><path class="cls-20" d="M-295.76,592a3.63,3.63,0,0,0,3.42,5,3.58,3.58,0,0,0,3.29-2.26,3.62,3.62,0,0,0-3.42-5A3.63,3.63,0,0,0-295.76,592Z" transform="translate(1016.07 -238.82)"/><path class="cls-19" d="M-269.76,621.86a23.34,23.34,0,0,1-5.81,2,18.38,18.38,0,0,1-6.05.23,15.69,15.69,0,0,1-5.7-2A22,22,0,0,1-292,618.2a16.87,16.87,0,0,0,4.44,4.38,14.38,14.38,0,0,0,5.89,2.23,16.54,16.54,0,0,0,6.27-.41A17.69,17.69,0,0,0-269.76,621.86Z" transform="translate(1016.07 -238.82)"/><path class="cls-10" d="M-267.89,589.21a33.75,33.75,0,0,1,5.41-.57,18.2,18.2,0,0,1,5,.59,16.84,16.84,0,0,1,4.62,2,51.58,51.58,0,0,1,4.43,3.18,11.94,11.94,0,0,0-3.17-4.81,11.8,11.8,0,0,0-5.21-2.91,12.28,12.28,0,0,0-6-.1A11.42,11.42,0,0,0-267.89,589.21Z" transform="translate(1016.07 -238.82)"/><path class="cls-10" d="M-282.27,586.85a11.42,11.42,0,0,0-4-4.13A12.36,12.36,0,0,0-292,580.9a11.76,11.76,0,0,0-5.87,1.09,11.9,11.9,0,0,0-4.55,3.54,49.07,49.07,0,0,1,5.22-1.59,16.47,16.47,0,0,1,5-.42,17.74,17.74,0,0,1,5,1.05A32.37,32.37,0,0,1-282.27,586.85Z" transform="translate(1016.07 -238.82)"/><path class="cls-19" d="M-276,591.41a51.85,51.85,0,0,0-4.72,5.11,48.8,48.8,0,0,0-4,5.69,13.55,13.55,0,0,0-1.78,4.19c-.12.76-.06,1.5,1.21,2.75a16.64,16.64,0,0,0,2.73,2.26,22.2,22.2,0,0,0,3,1.74,38.8,38.8,0,0,1-4.92-4.73,7.12,7.12,0,0,1-.8-1.24,2.66,2.66,0,0,1,.25-1.29,19.61,19.61,0,0,1,1.5-3c1.15-1.95,2.45-3.84,3.72-5.75S-277.24,593.37-276,591.41Z" transform="translate(1016.07 -238.82)"/><path class="cls-10" d="M-304.5,548s-12.21-2.35,2.82-9.72,51.88-11.66,71.15,4.84c0,0,6.48-8.31,12.3-4.66s-6.06,7.69-6.06,7.69,8.13,1.57,9.7,6.09c1.16,3.34-3.81,2.35-6.49,1.6,4.42,1.83,17.42,14.1.54,47.64-3-1.4-22.31-29-22.31-29s-38.85,12.76-31.76,2.18c0,0-45.27,11.38-34.3-9.14C-308.91,565.59-325.6,563.08-304.5,548Z" transform="translate(1016.07 -238.82)"/><path class="cls-10" d="M-220.54,601.51a8,8,0,0,0-7.41-.58c-4.47,1.66-7.32,11.71-7.32,11.71s-14.66,12-7.51-40.31c7-51.4,16.75,8.55,16.75,8.55Z" transform="translate(1016.07 -238.82)"/><path class="cls-6" d="M-199.15,440.65l-67-4.78a6.16,6.16,0,0,1-5.7-6.58h0a6.16,6.16,0,0,1,6.58-5.7l67,4.77a6.16,6.16,0,0,1,5.7,6.58h0A6.16,6.16,0,0,1-199.15,440.65Z" transform="translate(1016.07 -238.82)"/><polygon class="cls-6" points="797.61 0 821.03 57.41 881.61 70.67 834.24 110.69 840.35 172.39 787.66 139.71 730.86 164.59 745.66 104.38 704.44 58.05 766.28 53.52 797.61 0"/><polygon class="cls-2" points="797.61 0 791.61 84.25 821.03 57.41 797.61 0"/><polygon class="cls-2" points="881.61 70.67 791.61 84.25 834.24 110.69 881.61 70.67"/><polygon class="cls-2" points="791.61 84.25 766.28 53.52 704.44 58.05 791.61 84.25"/><polygon class="cls-2" points="730.86 164.59 791.61 84.25 745.66 104.38 730.86 164.59"/><polygon class="cls-2" points="840.35 172.39 791.61 84.25 787.66 139.71 840.35 172.39"/><rect class="cls-21" x="-285.08" y="439.52" width="102.08" height="35.88" transform="translate(1047.99 -221.03) rotate(4.08)"/><rect class="cls-22" x="-237.13" y="422.35" width="3.92" height="102.08" transform="translate(325.41 -33.63) rotate(-85.93)"/><rect class="cls-22" x="-234.79" y="389.47" width="3.92" height="102.08" transform="matrix(0.07, -1, 1, 0.07, 360.38, -61.84)"/><path class="cls-2" d="M-182.73,444.89-283,437.74a4.61,4.61,0,0,1-4.27-4.93h0a4.61,4.61,0,0,1,4.92-4.27l100.3,7.15a4.61,4.61,0,0,1,4.27,4.93h0A4.62,4.62,0,0,1-182.73,444.89Z" transform="translate(1016.07 -238.82)"/><path class="cls-21" d="M-183.08,487.38l-107-7.62a1.25,1.25,0,0,1-1.15-1.33l.48-6.72a1.24,1.24,0,0,1,1.33-1.15l107,7.62a1.25,1.25,0,0,1,1.15,1.33l-.48,6.72A1.24,1.24,0,0,1-183.08,487.38Z" transform="translate(1016.07 -238.82)"/><path class="cls-6" d="M-215.69,467.25l-38.72-2.76a8.73,8.73,0,0,1-8.09-9.33h0a8.73,8.73,0,0,1,9.33-8.09l38.72,2.75a8.75,8.75,0,0,1,8.09,9.34h0A8.73,8.73,0,0,1-215.69,467.25Z" transform="translate(1016.07 -238.82)"/><path class="cls-23" d="M-254.21,461.59a5.83,5.83,0,0,1-5.29-6.94,6,6,0,0,1,6.37-4.66l38.22,2.72a6,6,0,0,1,5.65,5.52,5.82,5.82,0,0,1-6.22,6.11Z" transform="translate(1016.07 -238.82)"/><path class="cls-6" d="M-221.28,430.46l-21.54-1.53.14-2c.58-8.12,1.48-25,14.27-48.4h0c9.72,26.77,7.85,41.82,7.27,49.94Z" transform="translate(1016.07 -238.82)"/></g></g></svg>